<svg width="12" height="12" viewBox="0 0 12 12" fill="none" xmlns="http://www.w3.org/2000/svg">
<path d="M5 6C4.99699 6.13317 5.02061 6.2656 5.06949 6.38951C5.11836 6.51343 5.1915 6.62633 5.2846 6.72159C5.37771 6.81685 5.48891 6.89254 5.61167 6.94424C5.73444 6.99593 5.86629 7.02257 5.99949 7.02261C6.1327 7.02264 6.26457 6.99606 6.38736 6.94443C6.51015 6.8928 6.62138 6.81716 6.71454 6.72194C6.80769 6.62673 6.88088 6.51387 6.92982 6.38998C6.97875 6.26609 7.00244 6.13367 6.9995 6.0005C6.99372 5.73922 6.88589 5.49058 6.69908 5.30782C6.51227 5.12505 6.26134 5.02267 5.99999 5.02261C5.73865 5.02254 5.48766 5.12479 5.30077 5.30747C5.11387 5.49014 5.00591 5.73872 5 6ZM6 8.5C5.67166 8.49997 5.34655 8.43526 5.04321 8.30958C4.73988 8.1839 4.46428 7.99971 4.23213 7.76752C3.76329 7.29858 3.49993 6.66261 3.5 5.9995C3.50007 5.33639 3.76355 4.70047 4.23248 4.23163C4.70142 3.76279 5.33739 3.49943 6.0005 3.4995C6.66361 3.49957 7.29953 3.76305 7.76837 4.23198C8.23721 4.70092 8.50057 5.33689 8.5005 6C8.50043 6.66311 8.23695 7.29903 7.76802 7.76787C7.29908 8.23671 6.66311 8.50007 6 8.5ZM6 1.75C3.2275 1.75 0.8755 3.5255 0 6C0.8755 8.4745 3.2275 10.25 6 10.25C8.7725 10.25 11.1245 8.4745 12 6C11.1245 3.5255 8.7725 1.75 6 1.75Z" fill="#191919"/>
</svg>
