<svg width="20" height="20" viewBox="0 0 20 20" fill="none" xmlns="http://www.w3.org/2000/svg">
<path d="M13.9325 1.70901C13.9385 1.76691 13.9456 1.84794 13.9508 1.94697C13.9612 2.14394 13.9646 2.41779 13.9358 2.72587C13.8803 3.31911 13.6951 4.15101 13.0897 4.75642C12.4843 5.36182 11.6524 5.54696 11.0592 5.60246C10.7511 5.63129 10.4773 5.6279 10.2803 5.61749C10.1813 5.61225 10.1002 5.60517 10.0423 5.59916L9.94236 5.58717C9.66859 5.54738 9.4527 5.33185 9.41291 5.05808L9.40087 4.9577C9.39486 4.8998 9.38777 4.81877 9.38254 4.71974C9.37213 4.52277 9.36874 4.24892 9.39756 3.94084C9.45306 3.3476 9.6382 2.51569 10.2436 1.91029C10.849 1.30489 11.6809 1.11975 12.2742 1.06425C12.5822 1.03542 12.8561 1.03881 13.0531 1.04922C13.1521 1.05446 13.2331 1.06154 13.291 1.06755L13.391 1.07953C13.6647 1.11933 13.8806 1.33486 13.9204 1.60863L13.9325 1.70901Z" fill="#020617"/>
<path d="M3.98213 7.57567C4.80073 6.57473 5.94514 6.04169 7.20034 6.04169C8.03652 6.04169 8.77169 6.37673 9.32509 6.73691C9.91202 7.11892 10.504 7.11892 11.091 6.73691C11.6444 6.37673 12.3795 6.04169 13.2157 6.04169C14.7469 6.04169 16.0969 6.83304 16.9044 8.26723C16.9925 8.42365 17.0091 8.61039 16.9499 8.77987C16.8907 8.94935 16.7615 9.08521 16.5952 9.15283C15.7277 9.50563 15.1297 10.3375 15.1297 11.2953C15.1297 12.3406 15.8428 13.2367 16.8387 13.522C17.0025 13.5689 17.14 13.6806 17.2195 13.8313C17.2989 13.9819 17.3135 14.1585 17.2597 14.3202C16.916 15.3529 16.3957 16.3324 15.7777 17.124C15.1666 17.9068 14.4222 18.5535 13.6112 18.8441C12.6512 19.1882 11.7483 18.6891 11.1787 18.2808C10.9871 18.1435 10.789 18.0194 10.6043 17.9319C10.411 17.8403 10.2795 17.8114 10.208 17.8114C10.1366 17.8114 10.0051 17.8403 9.81178 17.9319C9.62704 18.0194 9.42898 18.1435 9.23731 18.2808C8.66774 18.6891 7.76485 19.1882 6.80485 18.8441C5.67544 18.4393 4.65822 17.3385 3.93689 16.0718C3.20494 14.7865 2.70831 13.2119 2.70831 11.7161C2.70831 9.98226 3.17001 8.56869 3.98213 7.57567Z" fill="#020617"/>
</svg>
