<svg width="16" height="16" viewBox="0 0 16 16" fill="none" xmlns="http://www.w3.org/2000/svg">
<path d="M9.04314 10.1465C9.42322 10.3521 10.0194 10.6745 10.4273 11.0575C10.6812 11.296 10.9439 11.6289 10.9922 12.0522C11.0444 12.5103 10.8323 12.9238 10.4515 13.272C9.81216 13.8563 9.03481 14.3334 8.02657 14.3334H3.30677C2.29853 14.3334 1.52118 13.8563 0.881868 13.272C0.50099 12.9238 0.288974 12.5103 0.341162 12.0522C0.389391 11.6289 0.65209 11.296 0.906042 11.0575C1.3139 10.6745 1.91008 10.3521 2.29016 10.1466C2.37478 10.1008 2.4487 10.0608 2.50743 10.0273C4.44226 8.92195 6.89108 8.92195 8.82591 10.0273C8.88463 10.0608 8.95853 10.1008 9.04314 10.1465Z" fill="white"/>
<path d="M2.39779 4.919C2.39779 3.12283 3.86125 1.66675 5.66652 1.66675C7.47178 1.66675 8.93524 3.12283 8.93524 4.919C8.93524 6.71517 7.47178 8.17125 5.66652 8.17125C3.86125 8.17125 2.39779 6.71517 2.39779 4.919Z" fill="white"/>
<path d="M9.18509 7.31063C9.04799 7.49405 8.97943 7.58577 9.00543 7.67654C9.03143 7.76732 9.12275 7.8088 9.30539 7.89177C9.68547 8.06442 10.1141 8.16153 10.5677 8.16153C12.1321 8.16153 13.4003 7.00614 13.4003 5.58089C13.4003 4.15564 12.1321 3.00024 10.5677 3.00024C10.3971 3.00024 10.23 3.01398 10.0677 3.04032C9.86675 3.07292 9.76626 3.08922 9.7132 3.16973C9.66013 3.25023 9.69768 3.35596 9.77279 3.56741C9.92105 3.98487 10.0012 4.43027 10.0012 4.89272C10.0012 5.78919 9.70011 6.6216 9.18509 7.31063Z" fill="white"/>
<path d="M12.5953 13.6669C13.6166 13.6669 14.4109 13.2695 15.0715 12.7733C15.4629 12.4793 15.7194 12.1007 15.6575 11.654C15.6018 11.2528 15.3042 10.9542 15.0474 10.756C14.6267 10.4313 14.0129 10.1587 13.6261 9.9869C13.5407 9.94896 13.4664 9.91594 13.4076 9.88836C12.654 9.53457 11.8249 9.31594 10.9779 9.23246C10.4317 9.17862 10.1586 9.15171 10.0962 9.3003C10.0338 9.44889 10.277 9.60808 10.7634 9.92647C10.9481 10.0474 11.1268 10.1769 11.2836 10.3118C11.6366 10.6153 12.1542 11.1617 12.2518 11.946C12.297 12.3095 12.2447 12.6443 12.1269 12.9468C11.9866 13.3071 11.9165 13.4873 11.9771 13.5726C11.981 13.5781 11.9834 13.5811 11.9877 13.5863C12.0558 13.6669 12.2356 13.6669 12.5953 13.6669Z" fill="white"/>
</svg>
