<svg width="16" height="16" viewBox="0 0 16 16" fill="none" xmlns="http://www.w3.org/2000/svg">
<path d="M4.49995 9.90454C4.49989 9.04173 4.49984 8.25046 4.58655 7.6055C4.68208 6.89494 4.90684 6.14328 5.52508 5.52505C6.14331 4.90681 6.89497 4.68205 7.60554 4.58652C8.2505 4.49981 9.04176 4.49986 9.90457 4.49992L11.3954 4.49992C11.5927 4.49992 11.6914 4.49992 11.7507 4.43604C11.81 4.37217 11.803 4.27605 11.7888 4.08381C11.7765 3.91689 11.7608 3.7592 11.7407 3.61021C11.6545 2.97051 11.4821 2.43892 11.1145 1.99101C10.9829 1.83067 10.8359 1.68364 10.6755 1.55205C10.2029 1.16417 9.6371 0.993616 8.94979 0.912373C8.28031 0.833238 7.43407 0.833244 6.3659 0.833252H6.30068C5.2325 0.833244 4.38626 0.833238 3.71678 0.912372C3.02947 0.993615 2.46367 1.16417 1.99104 1.55205C1.8307 1.68364 1.68367 1.83067 1.55208 1.99101C1.16421 2.46364 0.993646 3.02944 0.912403 3.71675C0.833269 4.38623 0.833275 5.23246 0.833283 6.30064V6.36586C0.833275 7.43403 0.833268 8.28027 0.912403 8.94975C0.993646 9.63706 1.1642 10.2029 1.55208 10.6755C1.68367 10.8358 1.8307 10.9829 1.99104 11.1145C2.43895 11.482 2.97054 11.6545 3.61024 11.7407C3.75923 11.7607 3.91692 11.7765 4.08384 11.7888C4.27608 11.8029 4.3722 11.81 4.43607 11.7507C4.49995 11.6913 4.49995 11.5927 4.49995 11.3953V9.90454Z" fill="white"/>
<path fill-rule="evenodd" clip-rule="evenodd" d="M8.36896 6.06072C8.41523 6.41361 8.16667 6.7372 7.81378 6.78347C7.3898 6.83907 7.17909 6.93218 7.04088 7.04587C6.91892 7.1462 6.8331 7.27707 6.77622 7.56028C6.70613 7.90923 6.36644 8.13528 6.01749 8.06519C5.66855 7.9951 5.4425 7.65541 5.51258 7.30647C5.61113 6.81582 5.81269 6.38729 6.22207 6.05052C6.62362 5.72019 7.10612 5.57637 7.6462 5.50554C7.99909 5.45927 8.32268 5.70783 8.36896 6.06072ZM12.2975 6.06072C12.3438 5.70783 12.6674 5.45927 13.0202 5.50554C13.5603 5.57637 14.0428 5.72019 14.4444 6.05052C14.8538 6.38729 15.0553 6.81582 15.1539 7.30647C15.224 7.65541 14.9979 7.9951 14.649 8.06519C14.3 8.13528 13.9603 7.90922 13.8902 7.56028C13.8334 7.27707 13.7475 7.1462 13.6256 7.04587C13.4874 6.93218 13.2767 6.83907 12.8527 6.78347C12.4998 6.7372 12.2512 6.41361 12.2975 6.06072ZM8.72214 6.14451C8.72214 5.7886 9.01066 5.50007 9.36657 5.50007H11.2999C11.6558 5.50007 11.9443 5.7886 11.9443 6.14451C11.9443 6.50042 11.6558 6.78894 11.2999 6.78894H9.36657C9.01066 6.78894 8.72214 6.50042 8.72214 6.14451ZM6.1444 8.72225C6.50031 8.72225 6.78883 9.01077 6.78883 9.36668V11.3C6.78883 11.6559 6.50031 11.9444 6.1444 11.9444C5.78849 11.9444 5.49996 11.6559 5.49996 11.3V9.36668C5.49996 9.01077 5.78849 8.72225 6.1444 8.72225ZM14.5221 8.72225C14.878 8.72225 15.1665 9.01077 15.1665 9.36668V11.3C15.1665 11.6559 14.878 11.9444 14.5221 11.9444C14.1661 11.9444 13.8776 11.6559 13.8776 11.3V9.36668C13.8776 9.01077 14.1661 8.72225 14.5221 8.72225ZM6.01749 12.6015C6.36644 12.5314 6.70613 12.7574 6.77622 13.1064C6.8331 13.3896 6.91892 13.5205 7.04088 13.6208C7.17909 13.7345 7.3898 13.8276 7.81378 13.8832C8.16667 13.9295 8.41523 14.2531 8.36896 14.6059C8.32268 14.9588 7.99909 15.2074 7.6462 15.1611C7.10612 15.0903 6.62362 14.9465 6.22207 14.6161C5.81269 14.2794 5.61113 13.8508 5.51258 13.3602C5.4425 13.0113 5.66855 12.6716 6.01749 12.6015ZM14.649 12.6015C14.9979 12.6716 15.224 13.0113 15.1539 13.3602C15.0553 13.8508 14.8538 14.2794 14.4444 14.6161C14.0428 14.9465 13.5603 15.0903 13.0202 15.1611C12.6674 15.2074 12.3438 14.9588 12.2975 14.6059C12.2512 14.2531 12.4998 13.9295 12.8527 13.8832C13.2766 13.8276 13.4874 13.7345 13.6256 13.6208C13.7475 13.5205 13.8334 13.3896 13.8902 13.1064C13.9603 12.7574 14.3 12.5314 14.649 12.6015ZM8.72214 14.5222C8.72214 14.1662 9.01066 13.8777 9.36657 13.8777H11.2999C11.6558 13.8777 11.9443 14.1662 11.9443 14.5222C11.9443 14.8781 11.6558 15.1666 11.2999 15.1666H9.36657C9.01066 15.1666 8.72214 14.8781 8.72214 14.5222Z" fill="white"/>
</svg>
